<svg width="167" height="167" viewBox="0 0 167 167" fill="none" xmlns="http://www.w3.org/2000/svg">
<g opacity="0.717394" filter="url(#filter0_f_327_144)">
<path d="M54.9914 13.6487C54.4027 11.2621 57.7177 10.0141 58.849 12.1964L68.3379 30.5052C80.5906 54.1466 107.447 66.3124 133.299 59.9324L153.32 54.9915C155.707 54.4026 156.955 57.7176 154.772 58.849L136.463 68.3379C112.822 80.5906 100.656 107.447 107.036 133.299L111.977 153.32C112.566 155.707 109.251 156.955 108.12 154.772L98.6309 136.463C86.3783 112.822 59.522 100.656 33.6696 107.036L13.6488 111.977C11.2621 112.566 10.0142 109.251 12.1965 108.12L30.5052 98.6309C54.1467 86.3782 66.3125 59.5219 59.9324 33.6696L54.9914 13.6487Z" fill="#E9C4C4" fill-opacity="0.68"/>
</g>
<defs>
<filter id="filter0_f_327_144" x="0.0664062" y="0.0661621" width="166.836" height="166.836" filterUnits="userSpaceOnUse" color-interpolation-filters="sRGB">
<feFlood flood-opacity="0" result="BackgroundImageFix"/>
<feBlend mode="normal" in="SourceGraphic" in2="BackgroundImageFix" result="shape"/>
<feGaussianBlur stdDeviation="5.5" result="effect1_foregroundBlur_327_144"/>
</filter>
</defs>
</svg>
